# xmcd
#
# Track frame offsets:
#	150
#	17570
#	29793
#	45543
#	72486
#	83896
#	108018
#	128367
#	140996
#	173824
#	194579
#	220619
#	240109
#	253914
#	274662
#	290731
#
# Disc length: 4090 seconds
#
# Revision: 0
# Processed by: cddbd v1.5.1PL0 Copyright (c) Steve Scherf et al.
# Submitted via: audiograbber 1.83.01
#
DISCID=ea0ff810
DTITLE=LUIZ GONZAGA E CARMÉLIA ALVES - ESPETÁCULO DAS SEIS E MEIA
DYEAR=1977
DGENRE=Country
TTITLE0=LUIZ GONZAGA - VIRA E MEXE-XAMEGO
TTITLE1=LUIZ GONZAGA - BAIÃO
TTITLE2=LUIZ GONZAGA - FOLÔ DA MARAVILHA
TTITLE3=LUIZ GONZAGA - ASA BRANCA- A VOLTA DA ASA BRANCA
TTITLE4=LUIZ GONZAGA E CARMÉLIA ALVES - REIS DO BAIÃO
TTITLE5=CARMÉLIA ALVES - TREPA NO COQUEIRO-QUI NEM GILÓ-NO CEARÁ NÃO TEM DISSO 
TTITLE5=NÃO
TTITLE6=CARMÉLIA ALVES - BAIÃO DE DOIS-KALU
TTITLE7=LUIZ GONZAGA E CARMÉLIA ALVES - FORRÓ DO MANÉ VITO
TTITLE8=LUIZ GONZAGA - LÉGUA TIRANA
TTITLE9=LUIZ GONZAGA - JUAZEIRO-PAU DE ARARA
TTITLE10=LUIZ GONZAGA - BOIADEIRO-VOZES DA SECA
TTITLE11=LUIZ GONZAGA E CARMÉLIA ALVES - LOROTA BOA
TTITLE12=CARMÉLIA ALVES - SABIÁ LÁ NA GAIOLA
TTITLE13=CARMÉLIA ALVES - ÚLTIMO PAU DE ARARA-MARIA JOANA
TTITLE14=CARMÉLIA ALVES - VIOLA DE PENEDO
TTITLE15=LUIZ GONZAGA E CARMÉLIA ALVES - DEZESSETE E SETECENTOS
EXTD=
EXTT0=
EXTT1=
EXTT2=
EXTT3=
EXTT4=
EXTT5=
EXTT6=
EXTT7=
EXTT8=
EXTT9=
EXTT10=
EXTT11=
EXTT12=
EXTT13=
EXTT14=
EXTT15=
PLAYORDER=
